<svg width="161" height="161" viewBox="0 0 161 161" fill="none" xmlns="http://www.w3.org/2000/svg">
<g clip-path="url(#clip0_10_40)">
<path d="M140.875 6.70881H20.125C14.7875 6.70881 9.66865 8.82912 5.89448 12.6033C2.12031 16.3775 0 21.4963 0 26.8338L0 154.292H161V26.8338C161 21.4963 158.88 16.3775 155.106 12.6033C151.331 8.82912 146.212 6.70881 140.875 6.70881ZM20.125 20.1255H140.875C142.654 20.1255 144.36 20.8322 145.619 22.0903C146.877 23.3484 147.583 25.0546 147.583 26.8338V46.9588H13.4167V26.8338C13.4167 25.0546 14.1234 23.3484 15.3815 22.0903C16.6395 20.8322 18.3458 20.1255 20.125 20.1255ZM13.4167 140.875V60.3755H147.583V140.875H13.4167ZM33.5417 80.5005H127.458V93.9172H33.5417V80.5005ZM33.5417 107.334H100.625V120.75H33.5417V107.334ZM20.125 33.5421C20.125 32.2154 20.5184 30.9184 21.2556 29.8152C21.9927 28.712 23.0404 27.8522 24.2662 27.3445C25.492 26.8367 26.8408 26.7039 28.1421 26.9627C29.4434 27.2216 30.6387 27.8605 31.5768 28.7986C32.515 29.7368 33.1539 30.9321 33.4128 32.2334C33.6716 33.5347 33.5388 34.8835 33.031 36.1093C32.5233 37.3351 31.6635 38.3828 30.5603 39.1199C29.4571 39.857 28.1601 40.2505 26.8333 40.2505C25.0542 40.2505 23.3479 39.5437 22.0898 38.2857C20.8318 37.0276 20.125 35.3213 20.125 33.5421ZM40.25 33.5421C40.25 32.2154 40.6434 30.9184 41.3806 29.8152C42.1177 28.712 43.1654 27.8522 44.3912 27.3445C45.617 26.8367 46.9658 26.7039 48.2671 26.9627C49.5684 27.2216 50.7637 27.8605 51.7018 28.7986C52.64 29.7368 53.2789 30.9321 53.5378 32.2334C53.7966 33.5347 53.6638 34.8835 53.156 36.1093C52.6483 37.3351 51.7885 38.3828 50.6853 39.1199C49.5821 39.857 48.2851 40.2505 46.9583 40.2505C45.1792 40.2505 43.4729 39.5437 42.2148 38.2857C40.9568 37.0276 40.25 35.3213 40.25 33.5421ZM60.375 33.5421C60.375 32.2154 60.7684 30.9184 61.5056 29.8152C62.2427 28.712 63.2904 27.8522 64.5162 27.3445C65.742 26.8367 67.0908 26.7039 68.3921 26.9627C69.6934 27.2216 70.8887 27.8605 71.8268 28.7986C72.765 29.7368 73.4039 30.9321 73.6628 32.2334C73.9216 33.5347 73.7888 34.8835 73.281 36.1093C72.7733 37.3351 71.9135 38.3828 70.8103 39.1199C69.7071 39.857 68.4101 40.2505 67.0833 40.2505C65.3042 40.2505 63.5979 39.5437 62.3398 38.2857C61.0818 37.0276 60.375 35.3213 60.375 33.5421Z" fill="white"/>
</g>
<defs>
<clipPath id="clip0_10_40">
<rect width="161" height="161" fill="white"/>
</clipPath>
</defs>
</svg>
