<svg width="35" height="35" viewBox="0 0 35 35" fill="none" xmlns="http://www.w3.org/2000/svg">
<path d="M23.4221 11.5775C22.568 10.723 21.183 10.7226 20.3285 11.5766C20.3281 11.5769 20.3278 11.5773 20.3274 11.5775L17.4997 14.4067L14.6721 11.5775C13.8175 10.723 12.432 10.723 11.5775 11.5775C10.723 12.4321 10.723 13.8176 11.5775 14.6721L14.4066 17.4998L11.5774 20.3275C10.7229 21.1821 10.7229 22.5676 11.5774 23.4221C12.432 24.2767 13.8175 24.2767 14.672 23.4221L17.4997 20.593L20.3274 23.4222C21.182 24.2767 22.5675 24.2767 23.422 23.4222C24.2765 22.5676 24.2765 21.1821 23.422 20.3276L20.5929 17.4998L23.4221 14.6722C24.2766 13.8181 24.277 12.4331 23.423 11.5786C23.4227 11.5782 23.4224 11.5779 23.4221 11.5775Z" fill="#1A2732"/>
<path d="M17.5 0C7.83501 0 0 7.83501 0 17.5C0 27.165 7.83501 35 17.5 35C27.165 35 35 27.165 35 17.5C34.9895 7.83932 27.1607 0.010459 17.5 0ZM17.5 30.625C10.2512 30.625 4.375 24.7488 4.375 17.5C4.375 10.2512 10.2512 4.375 17.5 4.375C24.7488 4.375 30.625 10.2512 30.625 17.5C30.6169 24.7454 24.7454 30.6169 17.5 30.625Z" fill="#1A2732"/>
</svg>
