<svg width="80" height="80" viewBox="0 0 80 80" fill="none" xmlns="http://www.w3.org/2000/svg">
<g clip-path="url(#clip0_20_43)">
<path d="M77.0631 2.94006C75.868 1.73049 74.3812 0.849582 72.7463 0.382452C71.1113 -0.0846772 69.3835 -0.122238 67.7298 0.273398L14.3965 11.5067C11.3251 11.928 8.43224 13.1983 6.0438 15.1748C3.65537 17.1512 1.86617 19.7553 0.877711 22.6936C-0.110749 25.632 -0.259214 28.7879 0.449035 31.8061C1.15728 34.8243 2.69412 37.5848 4.88646 39.7767L10.6131 45.5001C10.9231 45.8099 11.1689 46.1779 11.3365 46.5828C11.5041 46.9878 11.5901 47.4218 11.5898 47.8601V58.4201C11.5972 59.9048 11.9389 61.3689 12.5898 62.7034L12.5631 62.7267L12.6498 62.8134C13.6265 64.7772 15.2217 66.3654 17.1898 67.3334L17.2765 67.4201L17.2998 67.3934C18.6343 68.0443 20.0984 68.386 21.5831 68.3934H32.1431C33.0266 68.3927 33.8743 68.7428 34.4998 69.3667L40.2231 75.0901C41.7582 76.6422 43.5853 77.8751 45.5991 78.7178C47.6128 79.5605 49.7735 79.9963 51.9565 80.0001C53.7756 79.9978 55.5824 79.7006 57.3065 79.1201C60.2179 78.164 62.8044 76.4135 64.7739 74.0658C66.7435 71.7181 68.0178 68.8667 68.4531 65.8334L79.7031 12.3834C80.1193 10.7155 80.0948 8.96813 79.6319 7.31261C79.1691 5.65708 78.2839 4.1503 77.0631 2.94006ZM15.3331 40.7934L9.60313 35.0701C8.26886 33.7679 7.3337 32.1122 6.90742 30.2973C6.48113 28.4823 6.5814 26.5834 7.19646 24.8234C7.79278 23.0178 8.89514 21.4215 10.3724 20.2243C11.8498 19.0271 13.6398 18.2794 15.5298 18.0701L68.3331 6.9534L18.2498 57.0434V47.8601C18.2548 46.5479 17.9997 45.2477 17.499 44.0347C16.9984 42.8217 16.2622 41.7201 15.3331 40.7934ZM61.9031 64.6934C61.6472 66.5345 60.8832 68.2679 59.6968 69.6989C58.5104 71.1299 56.9487 72.2019 55.1869 72.7946C53.4251 73.3873 51.533 73.4772 49.7229 73.0542C47.9128 72.6312 46.2565 71.7121 44.9398 70.4001L39.2065 64.6667C38.281 63.7362 37.1803 62.9984 35.9679 62.4961C34.7555 61.9937 33.4555 61.7368 32.1431 61.7401H22.9598L73.0498 11.6667L61.9031 64.6934Z" fill="#F2F2F2"/>
</g>
<defs>
<clipPath id="clip0_20_43">
<rect width="80" height="80" fill="white"/>
</clipPath>
</defs>
</svg>
