<svg width="80" height="80" viewBox="0 0 80 80" fill="none" xmlns="http://www.w3.org/2000/svg">
<g clip-path="url(#clip0_22_46)">
<path d="M80 33.3333V63.3333C79.9947 67.752 78.2371 71.9881 75.1126 75.1126C71.9881 78.2371 67.752 79.9947 63.3333 80H16.6667C12.248 79.9947 8.01186 78.2371 4.8874 75.1126C1.76294 71.9881 0.00529286 67.752 0 63.3333L0 26.6667C0.00529286 22.248 1.76294 18.0119 4.8874 14.8874C8.01186 11.7629 12.248 10.0053 16.6667 10H43.3333C44.2174 10 45.0652 10.3512 45.6904 10.9763C46.3155 11.6014 46.6667 12.4493 46.6667 13.3333C46.6667 14.2174 46.3155 15.0652 45.6904 15.6904C45.0652 16.3155 44.2174 16.6667 43.3333 16.6667H16.6667C14.854 16.6717 13.0771 17.1709 11.5271 18.1107C9.97704 19.0504 8.71266 20.3951 7.87 22L32.9267 47.06C34.8057 48.9302 37.3489 49.9802 40 49.9802C42.6511 49.9802 45.1943 48.9302 47.0733 47.06L59.81 34.3333C60.4387 33.7261 61.2807 33.3902 62.1547 33.3978C63.0287 33.4053 63.8647 33.7559 64.4827 34.3739C65.1008 34.992 65.4513 35.828 65.4589 36.702C65.4665 37.576 65.1305 38.418 64.5233 39.0467L51.7867 51.7867C48.6575 54.9067 44.4189 56.6587 40 56.6587C35.5811 56.6587 31.3425 54.9067 28.2133 51.7867L6.66667 30.2367V63.3333C6.66667 65.9855 7.72024 68.529 9.5956 70.4044C11.471 72.2798 14.0145 73.3333 16.6667 73.3333H63.3333C65.9855 73.3333 68.529 72.2798 70.4044 70.4044C72.2798 68.529 73.3333 65.9855 73.3333 63.3333V33.3333C73.3333 32.4493 73.6845 31.6014 74.3096 30.9763C74.9348 30.3512 75.7826 30 76.6667 30C77.5507 30 78.3986 30.3512 79.0237 30.9763C79.6488 31.6014 80 32.4493 80 33.3333ZM56.6667 16.6667H63.3333V23.3333C63.3333 24.2174 63.6845 25.0652 64.3096 25.6904C64.9348 26.3155 65.7826 26.6667 66.6667 26.6667C67.5507 26.6667 68.3986 26.3155 69.0237 25.6904C69.6488 25.0652 70 24.2174 70 23.3333V16.6667H76.6667C77.5507 16.6667 78.3986 16.3155 79.0237 15.6904C79.6488 15.0652 80 14.2174 80 13.3333C80 12.4493 79.6488 11.6014 79.0237 10.9763C78.3986 10.3512 77.5507 10 76.6667 10H70V3.33333C70 2.44928 69.6488 1.60143 69.0237 0.976311C68.3986 0.35119 67.5507 0 66.6667 0C65.7826 0 64.9348 0.35119 64.3096 0.976311C63.6845 1.60143 63.3333 2.44928 63.3333 3.33333V10H56.6667C55.7826 10 54.9348 10.3512 54.3096 10.9763C53.6845 11.6014 53.3333 12.4493 53.3333 13.3333C53.3333 14.2174 53.6845 15.0652 54.3096 15.6904C54.9348 16.3155 55.7826 16.6667 56.6667 16.6667Z" fill="#F2F2F2"/>
</g>
<defs>
<clipPath id="clip0_22_46">
<rect width="80" height="80" fill="white"/>
</clipPath>
</defs>
</svg>
