<svg width="166" height="152" viewBox="0 0 166 152" fill="none" xmlns="http://www.w3.org/2000/svg">
<g clip-path="url(#clip0_9_30)">
<path d="M13.7843 69.6667H89.598C93.2539 69.6667 96.76 68.3322 99.345 65.9567C101.93 63.5812 103.382 60.3594 103.382 57V12.6667C103.382 9.30726 101.93 6.08544 99.345 3.70998C96.76 1.33452 93.2539 0 89.598 0L13.7843 0C10.1285 0 6.62239 1.33452 4.03733 3.70998C1.45227 6.08544 0 9.30726 0 12.6667L0 57C0 60.3594 1.45227 63.5812 4.03733 65.9567C6.62239 68.3322 10.1285 69.6667 13.7843 69.6667ZM13.7843 12.6667H89.598V57H13.7843V12.6667Z" fill="white"/>
<path d="M151.628 -4.57764e-05H130.952C127.296 -4.57764e-05 123.79 1.33447 121.205 3.70993C118.62 6.0854 117.167 9.30721 117.167 12.6666V57C117.167 60.3594 118.62 63.5812 121.205 65.9566C123.79 68.3321 127.296 69.6666 130.952 69.6666H151.628C155.284 69.6666 158.79 68.3321 161.375 65.9566C163.96 63.5812 165.413 60.3594 165.413 57V12.6666C165.413 9.30721 163.96 6.0854 161.375 3.70993C158.79 1.33447 155.284 -4.57764e-05 151.628 -4.57764e-05V-4.57764e-05ZM151.628 57H130.952V12.6666H151.628V57Z" fill="white"/>
<path d="M34.4608 82.3354H13.7843C10.1285 82.3354 6.62239 83.6699 4.03733 86.0453C1.45227 88.4208 0 91.6426 0 95.002L0 139.335C0 142.695 1.45227 145.917 4.03733 148.292C6.62239 150.667 10.1285 152.002 13.7843 152.002H34.4608C38.1166 152.002 41.6227 150.667 44.2078 148.292C46.7928 145.917 48.2451 142.695 48.2451 139.335V95.002C48.2451 91.6426 46.7928 88.4208 44.2078 86.0453C41.6227 83.6699 38.1166 82.3354 34.4608 82.3354ZM34.4608 139.335H13.7843V95.002H34.4608V139.335Z" fill="white"/>
<path d="M151.627 82.3354H75.8136C72.1578 82.3354 68.6517 83.6699 66.0666 86.0453C63.4816 88.4208 62.0293 91.6426 62.0293 95.002V139.335C62.0293 142.695 63.4816 145.917 66.0666 148.292C68.6517 150.667 72.1578 152.002 75.8136 152.002H151.627C155.283 152.002 158.789 150.667 161.374 148.292C163.959 145.917 165.412 142.695 165.412 139.335V95.002C165.412 91.6426 163.959 88.4208 161.374 86.0453C158.789 83.6699 155.283 82.3354 151.627 82.3354ZM151.627 139.335H75.8136V95.002H151.627V139.335Z" fill="white"/>
</g>
<defs>
<clipPath id="clip0_9_30">
<rect width="165.412" height="152" fill="white"/>
</clipPath>
</defs>
</svg>
