<svg width="161" height="152" viewBox="0 0 161 152" fill="none" xmlns="http://www.w3.org/2000/svg">
<g clip-path="url(#clip0_9_9)">
<path d="M120.711 14.4786C112.523 7.57237 102.495 2.90496 91.7065 0.978659C80.9179 -0.947638 69.7772 -0.0598889 59.4832 3.54637C49.1892 7.15263 40.1318 13.3409 33.2856 21.4451C26.4395 29.5493 22.0638 39.2627 20.6295 49.5399C19.3414 58.5513 20.3716 67.723 23.6329 76.2789C26.8943 84.8348 32.2909 92.523 39.3659 98.6929C43.7411 102.315 47.2715 106.756 49.7335 111.734C52.1955 116.712 53.5353 122.118 53.668 127.611V128.631C53.6751 134.827 56.2854 140.767 60.9261 145.148C65.5668 149.53 71.8589 151.994 78.4218 152.001H82.581C89.1439 151.994 95.436 149.53 100.077 145.148C104.717 140.767 107.328 134.827 107.335 128.631V125.154C107.435 120.299 108.645 115.522 110.882 111.15C113.119 106.777 116.33 102.913 120.295 99.8203C126.726 94.5031 131.886 87.9565 135.434 80.6143C138.983 73.2721 140.838 65.3018 140.877 57.2316C140.917 49.1613 139.139 41.1753 135.663 33.8026C132.186 26.4299 127.09 19.8388 120.711 14.4659V14.4786ZM82.581 139.334H78.4218C75.4161 139.331 72.5345 138.202 70.4092 136.195C68.2838 134.189 67.0883 131.468 67.0847 128.631C67.0847 128.631 67.0377 126.984 67.031 126.667H93.918V128.631C93.9145 131.468 92.7189 134.189 90.5936 136.195C88.4682 138.202 85.5866 139.331 82.581 139.334ZM111.427 90.3076C103.789 96.562 98.2729 104.803 95.5683 114.001H87.2097V68.5019C91.12 67.1967 94.5078 64.7828 96.9094 61.5904C99.311 58.3979 100.609 54.5829 100.626 50.6673C100.626 48.9876 99.9196 47.3767 98.6615 46.1889C97.4035 45.0012 95.6972 44.3339 93.918 44.3339C92.1389 44.3339 90.4326 45.0012 89.1745 46.1889C87.9165 47.3767 87.2097 48.9876 87.2097 50.6673C87.2097 52.347 86.5029 53.9579 85.2449 55.1456C83.9868 56.3333 82.2805 57.0006 80.5014 57.0006C78.7222 57.0006 77.0159 56.3333 75.7579 55.1456C74.4998 53.9579 73.793 52.347 73.793 50.6673C73.793 48.9876 73.0863 47.3767 71.8282 46.1889C70.5702 45.0012 68.8639 44.3339 67.0847 44.3339C65.3055 44.3339 63.5993 45.0012 62.3412 46.1889C61.0831 47.3767 60.3764 48.9876 60.3764 50.6673C60.3936 54.5829 61.6918 58.3979 64.0934 61.5904C66.495 64.7828 69.8827 67.1967 73.793 68.5019V114.001H64.9246C61.8991 104.559 56.2247 96.0658 48.5026 89.4209C41.9483 83.655 37.2777 76.2393 35.0421 68.049C32.8066 59.8587 33.0992 51.2355 35.8857 43.1971C38.6721 35.1586 43.8359 28.0405 50.7678 22.6826C57.6997 17.3247 66.1104 13.9506 75.0072 12.9586C76.8516 12.7642 78.706 12.667 80.5617 12.6673C92.0838 12.6349 103.207 16.6486 111.769 23.9279C116.731 28.1054 120.696 33.2309 123.401 38.9647C126.106 44.6985 127.489 50.9096 127.458 57.1863C127.428 63.463 125.985 69.6619 123.224 75.372C120.464 81.0822 116.449 86.1732 111.447 90.3076H111.427Z" fill="white"/>
</g>
<defs>
<clipPath id="clip0_9_9">
<rect width="161" height="152" fill="white"/>
</clipPath>
</defs>
</svg>
