<svg width="80" height="80" viewBox="0 0 80 80" fill="none" xmlns="http://www.w3.org/2000/svg">
<g clip-path="url(#clip0_19_66)">
<path d="M74.9505 36.5844L40.0005 57.5577L5.05052 36.5844C4.29245 36.1295 3.38473 35.9944 2.52706 36.2088C1.6694 36.4233 0.932035 36.9696 0.477189 37.7277C0.0223428 38.4858 -0.112729 39.3935 0.101687 40.2511C0.316104 41.1088 0.862445 41.8462 1.62052 42.301L38.2872 64.301C38.8056 64.6125 39.3991 64.7771 40.0039 64.7771C40.6087 64.7771 41.2021 64.6125 41.7205 64.301L78.3872 42.301C79.1453 41.8462 79.6916 41.1088 79.906 40.2511C80.1205 39.3935 79.9854 38.4858 79.5305 37.7277C79.0757 36.9696 78.3383 36.4233 77.4807 36.2088C76.623 35.9944 75.7153 36.1295 74.9572 36.5844H74.9505Z" fill="#F2F2F2"/>
<path d="M74.9507 51.8094L40.0007 72.7795L5.05073 51.8094C4.67536 51.5842 4.25932 51.4351 3.82634 51.3707C3.39337 51.3063 2.95194 51.3277 2.52727 51.4339C2.10259 51.5401 1.70299 51.7289 1.35127 51.9895C0.999554 52.2501 0.70261 52.5774 0.477393 52.9528C0.252176 53.3281 0.103097 53.7442 0.0386683 54.1771C-0.0257604 54.6101 -0.0042773 55.0516 0.101891 55.4762C0.316308 56.3339 0.862649 57.0713 1.62073 57.5261L38.2874 79.5262C38.8058 79.8377 39.3993 80.0022 40.0041 80.0022C40.6089 80.0022 41.2023 79.8377 41.7207 79.5262L78.3874 57.5261C79.1455 57.0713 79.6918 56.3339 79.9062 55.4762C80.1207 54.6186 79.9856 53.7108 79.5307 52.9528C79.0759 52.1947 78.3385 51.6483 77.4809 51.4339C76.6232 51.2195 75.7155 51.3546 74.9574 51.8094H74.9507Z" fill="#F2F2F2"/>
<path d="M39.9997 49.2447C38.2016 49.2437 36.4376 48.7541 34.8964 47.828L1.61637 27.8581C1.12353 27.5617 0.715737 27.1429 0.432636 26.6423C0.149536 26.1418 0.00075531 25.5765 0.00075531 25.0014C0.00075531 24.4263 0.149536 23.861 0.432636 23.3604C0.715737 22.8599 1.12353 22.4411 1.61637 22.1447L34.8964 2.17471C36.4376 1.24881 38.2017 0.759659 39.9997 0.759659C41.7977 0.759659 43.5618 1.24881 45.103 2.17471L78.383 22.1447C78.8759 22.4411 79.2837 22.8599 79.5668 23.3604C79.8499 23.861 79.9986 24.4263 79.9986 25.0014C79.9986 25.5765 79.8499 26.1418 79.5668 26.6423C79.2837 27.1429 78.8759 27.5617 78.383 27.8581L45.103 47.828C43.5617 48.7541 41.7978 49.2437 39.9997 49.2447ZM9.81303 25.0014L38.333 42.1114C38.8368 42.4127 39.4127 42.5718 39.9997 42.5718C40.5867 42.5718 41.1626 42.4127 41.6664 42.1114L70.1864 25.0014L41.6664 7.89138C41.1626 7.59007 40.5867 7.43094 39.9997 7.43094C39.4127 7.43094 38.8368 7.59007 38.333 7.89138L9.81303 25.0014Z" fill="#F2F2F2"/>
</g>
<defs>
<clipPath id="clip0_19_66">
<rect width="80" height="80" fill="white"/>
</clipPath>
</defs>
</svg>
