<svg width="165" height="165" viewBox="0 0 165 165" fill="none" xmlns="http://www.w3.org/2000/svg">
<g clip-path="url(#clip0_14_9)">
<path d="M76.3616 99.3241C76.7608 100.139 77.3174 100.867 77.9993 101.465C78.6811 102.064 79.4747 102.522 80.3343 102.812C81.1939 103.103 82.1025 103.22 83.0077 103.158C83.9129 103.095 84.7968 102.854 85.6084 102.449C86.4201 102.043 87.1434 101.481 87.7367 100.794C88.33 100.108 88.7816 99.3108 89.0653 98.449C89.3491 97.5871 89.4595 96.6776 89.3901 95.7729C89.3207 94.8683 89.0729 93.9863 88.6609 93.1778L50.8484 17.5528C50.2776 16.4106 49.3998 15.4499 48.3136 14.7785C47.2274 14.107 45.9757 13.7514 44.6988 13.7514C43.4218 13.7514 42.1701 14.107 41.0839 14.7785C39.9977 15.4499 39.12 16.4106 38.5491 17.5528L0.736571 93.1778C0.324661 93.9863 0.0768578 94.8683 0.00744959 95.7729C-0.0619587 96.6776 0.0484008 97.5871 0.332165 98.449C0.615929 99.3108 1.06748 100.108 1.6608 100.794C2.25411 101.481 2.97744 102.043 3.78909 102.449C4.60073 102.854 5.48464 103.095 6.38984 103.158C7.29504 103.22 8.20363 103.103 9.06323 102.812C9.92282 102.522 10.7164 102.064 11.3983 101.465C12.0801 100.867 12.6367 100.139 13.0359 99.3241L24.8816 75.6259H64.5091L76.3616 99.3241ZM31.7566 61.8759L44.6884 35.9984L57.6341 61.8759H31.7566Z" fill="#56CCF2"/>
<path d="M162.985 77.6351C161.696 76.3462 159.948 75.6222 158.125 75.6222C156.302 75.6222 154.553 76.3462 153.264 77.6351L89.3745 141.524L59.8601 112.01C59.2259 111.353 58.4673 110.83 57.6286 110.469C56.7898 110.109 55.8876 109.919 54.9748 109.911C54.0619 109.903 53.1566 110.077 52.3117 110.423C51.4668 110.769 50.6992 111.279 50.0537 111.925C49.4082 112.57 48.8977 113.338 48.552 114.183C48.2063 115.028 48.0324 115.933 48.0403 116.846C48.0482 117.759 48.2379 118.661 48.5982 119.5C48.9585 120.338 49.4823 121.097 50.1389 121.731L84.5139 156.106C85.8032 157.395 87.5515 158.119 89.3745 158.119C91.1975 158.119 92.9459 157.395 94.2351 156.106L162.985 87.3563C164.274 86.067 164.998 84.3187 164.998 82.4957C164.998 80.6727 164.274 78.9243 162.985 77.6351Z" fill="#56CCF2"/>
</g>
<defs>
<clipPath id="clip0_14_9">
<rect width="165" height="165" fill="white"/>
</clipPath>
</defs>
</svg>
