<svg width="80" height="80" viewBox="0 0 80 80" fill="none" xmlns="http://www.w3.org/2000/svg">
<g clip-path="url(#clip0_19_62)">
<path d="M65.9997 14.7308C62.0918 9.43542 56.8191 5.30095 50.7445 2.76885C44.6699 0.236748 38.0217 -0.597884 31.5097 0.354081C25.1759 1.25458 19.1879 3.79661 14.1405 7.72765C9.09323 11.6587 5.16228 16.8419 2.7382 22.7624C0.314126 28.6829 -0.518706 35.1346 0.322441 41.4766C1.16359 47.8186 3.64944 53.8302 7.53304 58.9141C9.1866 61.1931 10.0525 63.9489 9.99971 66.7641V70.0008C9.99971 72.6529 11.0533 75.1965 12.9286 77.0718C14.804 78.9472 17.3475 80.0008 19.9997 80.0008H43.333C45.9852 80.0008 48.5287 78.9472 50.4041 77.0718C52.2795 75.1965 53.333 72.6529 53.333 70.0008H54.9797C59.0191 69.991 62.9183 68.5186 65.9559 65.856C68.9935 63.1933 70.9641 59.5207 71.503 55.5174L72.233 50.0008H73.333C74.2136 50.0194 75.0889 49.8597 75.9061 49.5312C76.7234 49.2028 77.4658 48.7124 78.0886 48.0896C78.7114 47.4668 79.2018 46.7244 79.5302 45.9072C79.8586 45.0899 80.0183 44.2147 79.9997 43.3341C79.9997 38.6008 70.2264 19.9508 65.9997 14.7308ZM69.3097 43.3341C68.5015 43.3344 67.7209 43.6283 67.1133 44.1612C66.5056 44.694 66.1122 45.4295 66.0064 46.2308L64.893 54.6474C64.5692 57.0488 63.3867 59.2516 61.5643 60.8486C59.7419 62.4455 57.4028 63.3284 54.9797 63.3341H49.9997C49.1157 63.3341 48.2678 63.6853 47.6427 64.3104C47.0176 64.9355 46.6664 65.7834 46.6664 66.6674V70.0008C46.6664 70.8848 46.3152 71.7327 45.6901 72.3578C45.0649 72.9829 44.2171 73.3341 43.333 73.3341H19.9997C19.1157 73.3341 18.2678 72.9829 17.6427 72.3578C17.0176 71.7327 16.6664 70.8848 16.6664 70.0008V66.7641C16.7167 62.4845 15.3697 58.3054 12.8297 54.8608C9.6559 50.7033 7.62421 45.7883 6.93615 40.6033C6.2481 35.4184 6.9276 30.1436 8.90725 25.3023C10.8869 20.4609 14.0979 16.2213 18.2217 13.004C22.3456 9.7866 27.2389 7.70331 32.4164 6.96075C33.8301 6.76449 35.2557 6.66648 36.683 6.66742C41.3669 6.6611 45.9862 7.75882 50.1665 9.87155C54.3468 11.9843 57.9703 15.0525 60.743 18.8274C66.0076 26.4021 70.2413 34.6432 73.333 43.3341H69.3097ZM53.9997 26.7041C53.7817 26.3242 53.4909 25.991 53.144 25.7235C52.7971 25.456 52.4008 25.2596 51.978 25.1454C51.5551 25.0311 51.1138 25.0014 50.6795 25.0578C50.2451 25.1142 49.8261 25.2556 49.4464 25.4741L46.173 27.3541C44.4754 25.6334 42.3413 24.4073 39.9997 23.8074V20.0007C39.9997 19.1167 39.6485 18.2688 39.0234 17.6437C38.3983 17.0186 37.5504 16.6674 36.6664 16.6674C35.7823 16.6674 34.9345 17.0186 34.3094 17.6437C33.6842 18.2688 33.333 19.1167 33.333 20.0007V23.8074C30.9879 24.4056 28.8501 25.6318 27.1497 27.3541L23.8764 25.4741C23.4969 25.2552 23.0779 25.1132 22.6436 25.0563C22.2092 24.9993 21.7678 25.0284 21.3447 25.142C20.9216 25.2556 20.5249 25.4515 20.1775 25.7183C19.8301 25.9852 19.5386 26.3179 19.3197 26.6974C19.1008 27.0769 18.9589 27.4959 18.9019 27.9302C18.8449 28.3646 18.8741 28.806 18.9877 29.2291C19.1013 29.6522 19.2971 30.0488 19.564 30.3963C19.8308 30.7437 20.1635 31.0352 20.543 31.2541L23.853 33.1574C23.5216 34.2985 23.3467 35.4793 23.333 36.6674C23.35 37.856 23.5283 39.0368 23.863 40.1774L20.553 42.0807C19.7866 42.5228 19.2271 43.2512 18.9977 44.1057C18.7682 44.9603 18.8877 45.8709 19.3297 46.6374C19.7717 47.4039 20.5001 47.9634 21.3547 48.1928C22.2092 48.4222 23.1199 48.3028 23.8864 47.8608L27.1597 45.9808C28.8574 47.7015 30.9914 48.9275 33.333 49.5274V53.3341C33.333 54.2181 33.6842 55.066 34.3094 55.6911C34.9345 56.3162 35.7823 56.6674 36.6664 56.6674C37.5504 56.6674 38.3983 56.3162 39.0234 55.6911C39.6485 55.066 39.9997 54.2181 39.9997 53.3341V49.5274C42.3449 48.9292 44.4826 47.703 46.183 45.9808L49.4564 47.8608C49.8359 48.0796 50.2548 48.2216 50.6892 48.2786C51.1236 48.3355 51.5649 48.3064 51.9881 48.1928C52.4112 48.0792 52.8078 47.8834 53.1552 47.6165C53.5027 47.3496 53.7942 47.0169 54.013 46.6374C54.2319 46.2579 54.3739 45.839 54.4309 45.4046C54.4878 44.9702 54.4587 44.5289 54.3451 44.1057C54.2315 43.6826 54.0357 43.286 53.7688 42.9385C53.5019 42.5911 53.1692 42.2996 52.7897 42.0807L49.4797 40.1774C49.8111 39.0363 49.986 37.8556 49.9997 36.6674C49.9828 35.4788 49.8045 34.298 49.4697 33.1574L52.7797 31.2541C53.5444 30.8121 54.1024 30.0846 54.3311 29.2315C54.5598 28.3784 54.4407 27.4694 53.9997 26.7041ZM36.6664 43.3341C35.3478 43.3341 34.0589 42.9431 32.9626 42.2105C31.8662 41.478 31.0118 40.4368 30.5072 39.2186C30.0026 38.0005 29.8706 36.66 30.1278 35.3668C30.385 34.0736 31.02 32.8857 31.9523 31.9534C32.8847 31.021 34.0726 30.3861 35.3658 30.1288C36.659 29.8716 37.9994 30.0036 39.2176 30.5082C40.4358 31.0128 41.477 31.8673 42.2095 32.9636C42.942 34.0599 43.333 35.3489 43.333 36.6674C43.333 38.4355 42.6307 40.1312 41.3804 41.3815C40.1302 42.6317 38.4345 43.3341 36.6664 43.3341Z" fill="#F2F2F2"/>
</g>
<defs>
<clipPath id="clip0_19_62">
<rect width="80" height="80" fill="white"/>
</clipPath>
</defs>
</svg>
