<svg width="80" height="80" viewBox="0 0 80 80" fill="none" xmlns="http://www.w3.org/2000/svg">
<g clip-path="url(#clip0_19_52)">
<path d="M48.3335 43.3348C47.3446 43.3348 46.3779 43.0415 45.5557 42.4921C44.7334 41.9427 44.0926 41.1618 43.7141 40.2482C43.3357 39.3345 43.2367 38.3292 43.4296 37.3593C43.6225 36.3894 44.0987 35.4985 44.798 34.7992C45.4972 34.1 46.3882 33.6238 47.3581 33.4308C48.328 33.2379 49.3333 33.3369 50.2469 33.7154C51.1606 34.0938 51.9415 34.7347 52.4909 35.5569C53.0403 36.3792 53.3335 37.3458 53.3335 38.3348C53.3335 39.6608 52.8067 40.9326 51.869 41.8703C50.9314 42.808 49.6596 43.3348 48.3335 43.3348ZM72.8368 27.5814C71.4986 19.8484 67.4682 12.838 61.4587 7.79058C55.4492 2.74314 47.8481 -0.0159693 40.0002 0.00141681C17.0002 0.00141681 10.4135 15.5814 6.06351 25.8914C5.18145 28.8086 3.68195 31.5018 1.66684 33.7881C1.06487 34.1392 0.588074 34.6701 0.303484 35.3062C0.0188931 35.9423 -0.0591778 36.6516 0.0802474 37.3344C0.219673 38.0172 0.569582 38.6391 1.08078 39.1127C1.59198 39.5863 2.23875 39.8878 2.93017 39.9748C11.1695 40.6676 19.4563 39.4115 27.1202 36.3081C26.6973 37.2452 26.5736 38.2898 26.7659 39.2997C26.9582 40.3097 27.4571 41.2358 28.1947 41.9519C28.9323 42.6681 29.8727 43.1394 30.8878 43.3018C31.903 43.4642 32.9435 43.3098 33.8677 42.8595C34.7919 42.4092 35.5549 41.6849 36.0526 40.7854C36.5503 39.8858 36.7587 38.8547 36.6493 37.8325C36.5399 36.8103 36.118 35.8466 35.4412 35.0728C34.7643 34.299 33.8654 33.7526 32.8668 33.5081C39.4155 29.8396 45.0602 24.7519 49.3868 18.6181C49.6614 18.2635 49.8616 17.8571 49.9754 17.4232C50.0892 16.9894 50.1143 16.5371 50.0491 16.0934C49.984 15.6496 49.83 15.2236 49.5963 14.8408C49.3627 14.4579 49.0541 14.1262 48.6892 13.8654C48.3243 13.6047 47.9106 13.4202 47.4727 13.3231C47.0349 13.2261 46.5819 13.2183 46.141 13.3004C45.7001 13.3825 45.2802 13.5528 44.9067 13.8009C44.5331 14.0491 44.2134 14.3701 43.9668 14.7448C40.0796 20.2176 35.0052 24.7406 29.1232 27.9754C23.2412 31.2102 16.7038 33.0731 10.0002 33.4248C10.7568 31.9148 11.4602 30.2381 12.2068 28.4814C16.3068 18.7614 21.4102 6.66808 40.0002 6.66808C46.5863 6.65233 52.9439 9.08109 57.842 13.484C62.74 17.887 65.83 23.9509 66.5135 30.5014C66.5898 31.2176 66.8961 31.8899 67.3864 32.4174C67.8768 32.945 68.5248 33.2996 69.2335 33.4281C70.448 33.6656 71.5312 34.3451 72.2737 35.335C73.0162 36.325 73.3652 37.5551 73.2533 38.7875C73.1413 40.0199 72.5763 41.167 71.6676 42.0069C70.7588 42.8469 69.5709 43.32 68.3335 43.3348C68.0516 43.3269 67.7707 43.2968 67.4935 43.2448C66.7161 43.103 65.9136 43.2438 65.2309 43.6417C64.5481 44.0396 64.0301 44.6685 63.7702 45.4148C60.7168 54.0714 50.4402 63.3348 40.0002 63.3348C30.3335 63.3348 21.3335 55.7248 17.4468 48.2048C17.0402 47.4197 16.3383 46.8284 15.4956 46.5608C14.653 46.2933 13.7385 46.3714 12.9535 46.7781C12.1685 47.1848 11.5771 47.8866 11.3096 48.7293C11.042 49.5719 11.1202 50.4864 11.5268 51.2714C14.9815 57.7175 20.2436 63.0144 26.6668 66.5114V76.6681C26.6668 77.5521 27.018 78.4 27.6432 79.0251C28.2683 79.6502 29.1161 80.0014 30.0002 80.0014C30.8842 80.0014 31.7321 79.6502 32.3572 79.0251C32.9823 78.4 33.3335 77.5521 33.3335 76.6681V69.1281C37.7005 70.3014 42.2998 70.3014 46.6668 69.1281V76.6681C46.6668 77.5521 47.018 78.4 47.6432 79.0251C48.2683 79.6502 49.1161 80.0014 50.0002 80.0014C50.8842 80.0014 51.7321 79.6502 52.3572 79.0251C52.9823 78.4 53.3335 77.5521 53.3335 76.6681V66.5148C60.2139 62.8158 65.7384 57.0229 69.1068 49.9748C71.7262 49.796 74.2087 48.739 76.1529 46.9747C78.0971 45.2103 79.3894 42.8418 79.8208 40.252C80.2521 37.6623 79.7974 35.0027 78.53 32.7034C77.2627 30.4041 75.2568 28.5995 72.8368 27.5814Z" fill="#F2F2F2"/>
</g>
<defs>
<clipPath id="clip0_19_52">
<rect width="80" height="80" fill="white"/>
</clipPath>
</defs>
</svg>
