<svg width="80" height="80" viewBox="0 0 80 80" fill="none" xmlns="http://www.w3.org/2000/svg">
<path d="M79.9329 6.74323V20.0766C79.9329 20.9606 79.5818 21.8085 78.9566 22.4336C78.3315 23.0587 77.4837 23.4099 76.5996 23.4099C75.7156 23.4099 74.8677 23.0587 74.2426 22.4336C73.6175 21.8085 73.2663 20.9606 73.2663 20.0766V11.5332L55.5996 29.1066C54.9693 29.7122 54.1262 30.046 53.2521 30.036C52.378 30.0261 51.5428 29.6731 50.9265 29.0533C50.3101 28.4334 49.9619 27.5962 49.9569 26.7221C49.9518 25.8479 50.2904 25.0068 50.8996 24.3799L68.6329 6.74323H59.9329C59.0489 6.74323 58.201 6.39204 57.5759 5.76692C56.9508 5.1418 56.5996 4.29395 56.5996 3.4099C56.5996 2.52584 56.9508 1.678 57.5759 1.05287C58.201 0.427753 59.0489 0.0765638 59.9329 0.0765638H73.2663C75.0344 0.0765638 76.7301 0.778943 77.9803 2.02919C79.2306 3.27943 79.9329 4.97512 79.9329 6.74323ZM76.9163 55.8732C78.848 57.8103 79.9328 60.4343 79.9328 63.1699C79.9328 65.9055 78.848 68.5295 76.9163 70.4666L73.8763 73.9666C46.5729 100.093 -19.8571 33.6832 5.87627 6.2999L9.70627 2.96656C11.6466 1.08913 14.2474 0.0501001 16.9472 0.0737991C19.647 0.097498 22.2292 1.18203 24.1363 3.09323C24.2363 3.19656 30.4129 11.2232 30.4129 11.2232C32.2452 13.1481 33.2654 15.7048 33.2617 18.3622C33.258 21.0197 32.2306 23.5735 30.3929 25.4932L26.5296 30.3499C28.6658 35.5403 31.8065 40.2574 35.7713 44.2302C39.7361 48.203 44.4469 51.3533 49.6329 53.4999L54.5163 49.6166C56.4358 47.7799 58.989 46.7531 61.6456 46.7494C64.3023 46.7457 66.8583 47.7653 68.7829 49.5966C68.7829 49.5966 76.813 55.7732 76.9163 55.8732ZM72.3329 60.7199C72.3329 60.7199 64.3563 54.5799 64.2529 54.4799C63.5662 53.799 62.6383 53.417 61.6713 53.417C60.7042 53.417 59.7763 53.799 59.0896 54.4799C58.9996 54.5666 52.2763 59.9266 52.2763 59.9266C51.8232 60.2872 51.284 60.5236 50.7118 60.6124C50.1395 60.7013 49.554 60.6395 49.0129 60.4332C42.2903 57.9333 36.1842 54.0163 31.1091 48.9481C26.034 43.8799 22.1087 37.7791 19.5996 31.0599C19.3801 30.5136 19.3092 29.919 19.3941 29.3364C19.479 28.7538 19.7167 28.2041 20.0829 27.7432C20.0829 27.7432 25.4396 21.0199 25.5296 20.9299C26.2105 20.2432 26.5925 19.3153 26.5925 18.3482C26.5925 17.3812 26.2105 16.4533 25.5296 15.7666C25.4296 15.6666 19.2896 7.68656 19.2896 7.68656C18.593 7.06115 17.6836 6.72586 16.7478 6.74941C15.8119 6.77296 14.9205 7.15357 14.2563 7.81323L10.4263 11.1466C-8.38706 33.7532 49.1896 88.1399 68.9996 69.4199L72.0396 65.9199C72.7563 65.2622 73.188 64.3507 73.2428 63.3795C73.2976 62.4083 72.9711 61.454 72.3329 60.7199Z" fill="#F2F2F2"/>
</svg>
